<svg width="31" height="31" viewBox="0 0 31 31" fill="none" xmlns="http://www.w3.org/2000/svg">
<path fill-rule="evenodd" clip-rule="evenodd" d="M12.5833 24.25C6.14001 24.25 0.916668 19.0266 0.916668 12.5833C0.916668 6.13997 6.14001 0.916626 12.5833 0.916626C19.0267 0.916626 24.25 6.13997 24.25 12.5833C24.25 15.2793 23.3355 17.7618 21.7998 19.7374L29.6562 27.5938L27.5938 29.6562L19.7374 21.7997C17.7618 23.3355 15.2794 24.25 12.5833 24.25ZM21.3333 12.5833C21.3333 17.4158 17.4158 21.3333 12.5833 21.3333C7.75084 21.3333 3.83333 17.4158 3.83333 12.5833C3.83333 7.7508 7.75084 3.83329 12.5833 3.83329C17.4158 3.83329 21.3333 7.7508 21.3333 12.5833Z" fill="#CC0033"/>
<path d="M21.7998 19.7374L21.405 19.4305L21.1342 19.7789L21.4462 20.0909L21.7998 19.7374ZM29.6562 27.5938L30.0098 27.9473L30.3633 27.5938L30.0098 27.2402L29.6562 27.5938ZM27.5938 29.6562L27.2402 30.0097L27.5938 30.3633L27.9474 30.0097L27.5938 29.6562ZM19.7374 21.7997L20.091 21.4462L19.7789 21.1342L19.4305 21.405L19.7374 21.7997ZM0.416668 12.5833C0.416668 19.3028 5.86387 24.75 12.5833 24.75V23.75C6.41615 23.75 1.41667 18.7505 1.41667 12.5833H0.416668ZM12.5833 0.416626C5.86387 0.416626 0.416668 5.86383 0.416668 12.5833H1.41667C1.41667 6.41611 6.41615 1.41663 12.5833 1.41663V0.416626ZM24.75 12.5833C24.75 5.86383 19.3028 0.416626 12.5833 0.416626V1.41663C18.7505 1.41663 23.75 6.41611 23.75 12.5833H24.75ZM22.1945 20.0442C23.7961 17.984 24.75 15.3943 24.75 12.5833H23.75C23.75 15.1643 22.875 17.5396 21.405 19.4305L22.1945 20.0442ZM30.0098 27.2402L22.1533 19.3838L21.4462 20.0909L29.3026 27.9473L30.0098 27.2402ZM27.9474 30.0097L30.0098 27.9473L29.3026 27.2402L27.2402 29.3026L27.9474 30.0097ZM19.3838 22.1533L27.2402 30.0097L27.9474 29.3026L20.091 21.4462L19.3838 22.1533ZM12.5833 24.75C15.3944 24.75 17.984 23.796 20.0443 22.1945L19.4305 21.405C17.5396 22.8749 15.1644 23.75 12.5833 23.75V24.75ZM12.5833 21.8333C17.692 21.8333 21.8333 17.6919 21.8333 12.5833H20.8333C20.8333 17.1396 17.1397 20.8333 12.5833 20.8333V21.8333ZM3.33333 12.5833C3.33333 17.6919 7.4747 21.8333 12.5833 21.8333V20.8333C8.02699 20.8333 4.33333 17.1396 4.33333 12.5833H3.33333ZM12.5833 3.33329C7.4747 3.33329 3.33333 7.47466 3.33333 12.5833H4.33333C4.33333 8.02694 8.02699 4.33329 12.5833 4.33329V3.33329ZM21.8333 12.5833C21.8333 7.47466 17.692 3.33329 12.5833 3.33329V4.33329C17.1397 4.33329 20.8333 8.02694 20.8333 12.5833H21.8333Z" fill="#CC0033"/>
</svg>
